<svg width="32" height="32" viewBox="0 0 32 32" fill="none" xmlns="http://www.w3.org/2000/svg">
  <defs>
    <linearGradient id="leafGradient" x1="0%" y1="0%" x2="100%" y2="100%">
      <stop offset="0%" style="stop-color:#22c55e" />
      <stop offset="100%" style="stop-color:#16a34a" />
    </linearGradient>
  </defs>
  
  <!-- Background circle -->
  <circle cx="16" cy="16" r="16" fill="url(#leafGradient)" />
  
  <!-- Leaf shape -->
  <path d="M8 16C8 12 10 8 16 8C22 8 24 12 24 16C24 18 22 20 20 21C18 22 14 22 12 21C10 20 8 18 8 16Z" fill="white" opacity="0.9"/>
  
  <!-- Leaf vein -->
  <path d="M16 8L16 22M12 14L16 18L20 14" stroke="url(#leafGradient)" stroke-width="2" stroke-linecap="round" stroke-linejoin="round"/>
  
  <!-- Small dots for texture -->
  <circle cx="13" cy="12" r="1" fill="url(#leafGradient)" opacity="0.6"/>
  <circle cx="19" cy="12" r="1" fill="url(#leafGradient)" opacity="0.6"/>
  <circle cx="14" cy="19" r="1" fill="url(#leafGradient)" opacity="0.6"/>
  <circle cx="18" cy="19" r="1" fill="url(#leafGradient)" opacity="0.6"/>
</svg>